<?xml version="1.0" encoding="UTF-8"?>
<svg width="24px" height="24px" viewBox="0 0 24 24" version="1.1" xmlns="http://www.w3.org/2000/svg">
    <g stroke="none" stroke-width="1" fill="none" fill-rule="evenodd">
        <circle fill="#FFD700" cx="12" cy="12" r="5"/>
        <path d="M12,3 L12,4.5 M12,19.5 L12,21 M3,12 L4.5,12 M19.5,12 L21,12 M5.2,5.2 L6.3,6.3 M17.7,17.7 L18.8,18.8 M5.2,18.8 L6.3,17.7 M17.7,6.3 L18.8,5.2" stroke="#FFD700" stroke-width="2" stroke-linecap="round"/>
        <path d="M12,7 C9.24,7 7,9.24 7,12 C7,14.76 9.24,17 12,17 C14.76,17 17,14.76 17,12 C17,9.24 14.76,7 12,7 Z" stroke="#FFD700" stroke-width="2"/>
    </g>
</svg> 